<svg width="9" height="9" viewBox="0 0 9 9" fill="none" xmlns="http://www.w3.org/2000/svg">
<path d="M1.01791 7C0.458681 7 0.00814218 6.54139 0.0180692 5.98225L0.115666 0.48512C0.120447 0.215814 0.340126 0 0.609475 0V0C0.886222 0 1.10896 0.22737 1.10326 0.504058L1.01038 5.01261C0.998845 5.57283 1.44983 6.0332 2.01017 6.0332L8.5166 6.0332C8.78358 6.0332 9 6.24963 9 6.5166V6.5166C9 6.78357 8.78358 7 8.5166 7L1.01791 7Z" fill="#DD6A2B"/>
<path d="M0.613639 5.90189L4.20416 0.924419C4.52727 0.476509 5.1523 0.375333 5.60021 0.698435L8.84426 3.03855V3.03855C8.59653 3.38196 8.11732 3.45954 7.7739 3.21181L5.15958 1.32596L3.7487 3.28184L6.68103 5.39709V5.39709C6.43331 5.7405 5.95409 5.81808 5.61067 5.57035L3.30016 3.90365L1.43258 6.49264L0.613639 5.90189Z" fill="#DD6A2B"/>
</svg>
